# File created by Blade
# Date/Time:  Fri Jan 16 19:32:17 2015
# Frame Rate: 120.000 fps
#------------------------------------------------------
:FULLY-SPECIFIED
:DEGREES
142
root 19.313198 35.458394 -20.249218 7.541228 6.826482 -0.489621
Spine -20.655366 -8.535657 1.173926
Head 12.800179 4.349045 0.558705
LeftShoulder -10.302730 6.020117 -3.567684
LeftArm -83.621118 47.907828 -166.898988
LeftForeArm 42.171783 0.000000 106.389347
LeftHand 3.962573 0.000000 -24.035081
LeftHandThumb1 -26.253704 0.000000 33.147579
RightShoulder -15.713371 -1.552635 -16.323636
RightArm -144.830985 85.720047 -141.836898
RightForeArm 21.478708 -0.000000 72.452859
RightHand -0.504678 -0.000000 -24.170725
RightHandThumb1 -24.326973 -0.000000 -32.862282
LeftUpLeg 1.161628 4.711690 1.930195
LeftLeg -5.873764 -0.000000 0.000000
LeftFoot -20.716410 26.421163 -13.756472
LeftToeBase 26.375723 -0.000000 -0.000000
RightUpLeg 2.435538 -13.963034 -1.168099
RightLeg -3.535728 -0.000000 0.000000
RightFoot -23.014778 -23.220934 19.052275
RightToeBase 24.781611 -0.000000 -0.000000
143
root 19.313234 35.459520 -20.243414 7.444983 7.094420 -0.399177
Spine -20.662541 -8.668378 1.233799
Head 13.165333 4.507836 0.151717
LeftShoulder -10.173097 5.883386 -3.699283
LeftArm -83.656785 47.918941 -166.635955
LeftForeArm 43.594553 -0.000000 107.205709
LeftHand 4.264860 -0.000000 -23.635643
LeftHandThumb1 -26.253704 0.000000 33.147579
RightShoulder -15.633577 -1.140067 -17.048211
RightArm -149.478745 85.300433 -146.833322
RightForeArm 22.139476 -0.000000 74.600001
RightHand -0.202272 -0.000000 -24.805464
RightHandThumb1 -24.326973 -0.000000 -32.862282
LeftUpLeg 1.225906 4.489143 1.881243
LeftLeg -5.854587 -0.000000 0.000000
LeftFoot -20.655971 26.355185 -13.814745
LeftToeBase 26.363176 -0.000000 -0.000000
RightUpLeg 2.612548 -14.104460 -1.256608
RightLeg -3.565928 -0.000000 0.000000
RightFoot -23.098192 -23.320492 19.108764
RightToeBase 24.796990 -0.000000 -0.000000
144
root 19.312559 35.461445 -20.241246 7.362216 7.339348 -0.307359
Spine -20.674401 -8.806818 1.290714
Head 13.527298 4.651610 -0.239092
LeftShoulder -10.091259 5.707079 -3.852611
LeftArm -83.765890 48.001420 -166.356483
LeftForeArm 45.017753 0.000000 108.009756
LeftHand 4.569831 -0.000000 -23.428597
LeftHandThumb1 -26.253704 0.000000 33.147579
RightShoulder -15.510699 -0.793053 -17.727690
RightArm -154.286031 84.743424 -152.023437
RightForeArm 22.898715 -0.000000 76.730577
RightHand -0.117808 0.000000 -25.443556
RightHandThumb1 -24.326973 -0.000000 -32.862282
LeftUpLeg 1.267771 4.289525 1.828008
LeftLeg -5.825171 -0.000000 0.000000
LeftFoot -20.613337 26.285900 -13.915512
LeftToeBase 26.253335 -0.000000 -0.000000
RightUpLeg 2.760147 -14.199024 -1.347179
RightLeg -3.574923 -0.000000 0.000000
RightFoot -23.184836 -23.425073 19.167875
RightToeBase 24.790414 -0.000000 -0.000000
145
root 19.309972 35.463589 -20.238995 7.282705 7.634299 -0.218238
Spine -20.695144 -9.005107 1.348817
Head 13.898007 4.795746 -0.581743
LeftShoulder -9.951546 5.503945 -3.983953
LeftArm -83.787308 48.047496 -166.076674
LeftForeArm 46.424691 0.000000 108.694677
LeftHand 4.821818 0.000000 -23.458154
LeftHandThumb1 -26.253704 0.000000 33.147579
RightShoulder -15.421859 -0.299646 -18.419384
RightArm -158.946810 84.272660 -157.118780
RightForeArm 23.821907 -0.000000 78.823156
RightHand 0.170495 -0.000000 -25.878757
RightHandThumb1 -24.326973 -0.000000 -32.862282
LeftUpLeg 1.291233 4.063755 1.785887
LeftLeg -5.776465 -0.000000 0.000000
LeftFoot -20.551623 26.191560 -13.939974
LeftToeBase 26.285493 -0.000000 -0.000000
RightUpLeg 2.906440 -14.367533 -1.421410
RightLeg -3.580610 -0.000000 0.000000
RightFoot -23.268693 -23.524313 19.229132
RightToeBase 24.741462 -0.000000 -0.000000
146
root 19.308959 35.466257 -20.233481 7.198936 7.930369 -0.147370
Spine -20.735360 -9.253795 1.448864
Head 14.282805 4.943852 -0.935608
LeftShoulder -9.894091 5.281908 -4.159911
LeftArm -83.838998 48.090618 -165.877485
LeftForeArm 47.435374 -0.000000 109.266233
LeftHand 4.869725 0.000000 -23.476078
LeftHandThumb1 -26.253704 0.000000 33.147579
RightShoulder -15.281518 0.213595 -19.114698
RightArm -163.147402 83.850647 -161.764686
RightForeArm 24.801093 0.000000 80.933607
RightHand 0.592520 -0.000000 -26.301833
RightHandThumb1 -24.326973 -0.000000 -32.862282
LeftUpLeg 1.339799 3.800397 1.761255
LeftLeg -5.760532 -0.000000 0.000000
LeftFoot -20.509604 26.122913 -14.028969
LeftToeBase 26.253210 -0.000000 -0.000000
RightUpLeg 3.069910 -14.528578 -1.488223
RightLeg -3.597360 -0.000000 0.000000
RightFoot -23.348722 -23.593338 19.340927
RightToeBase 24.733688 -0.000000 -0.000000
147
root 19.310263 35.468905 -20.229118 7.137625 8.191938 -0.060598
Spine -20.824733 -9.478622 1.522917
Head 14.777457 5.164224 -1.150531
LeftShoulder -9.788972 5.166825 -4.291694
LeftArm -83.879396 48.287523 -165.746279
LeftForeArm 48.552322 -0.000000 109.770334
LeftHand 5.044079 -0.000000 -23.686958
LeftHandThumb1 -26.253704 0.000000 33.147579
RightShoulder -15.055365 0.755601 -19.806978
RightArm -166.483895 83.349319 -165.566595
RightForeArm 25.894730 -0.000000 82.960213
RightHand 0.744404 -0.000000 -26.578820
RightHandThumb1 -24.326973 -0.000000 -32.862282
LeftUpLeg 1.377861 3.605089 1.708618
LeftLeg -5.758611 -0.000000 0.000000
LeftFoot -20.427992 26.032518 -14.098234
LeftToeBase 26.220415 -0.000000 -0.000000
RightUpLeg 3.196937 -14.645157 -1.567981
RightLeg -3.602814 -0.000000 0.000000
RightFoot -23.426757 -23.714040 19.404699
RightToeBase 24.711074 -0.000000 -0.000000
148
root 19.308144 35.471194 -20.230844 7.092873 8.483478 0.028784
Spine -20.891759 -9.726303 1.580459
Head 15.146569 5.367027 -1.385405
LeftShoulder -9.629309 4.929155 -4.392762
LeftArm -83.957992 48.367062 -165.679654
LeftForeArm 49.636806 -0.000000 110.216438
LeftHand 5.219127 -0.000000 -23.943138
LeftHandThumb1 -26.253704 0.000000 33.147579
RightShoulder -14.902896 1.298773 -20.478308
RightArm -170.121286 82.850232 -169.661302
RightForeArm 27.040245 0.000000 84.969058
RightHand 1.271658 -0.000000 -26.972449
RightHandThumb1 -24.326973 -0.000000 -32.862282
LeftUpLeg 1.375662 3.360918 1.660419
LeftLeg -5.739652 -0.000000 0.000000
LeftFoot -20.367700 25.961883 -14.172881
LeftToeBase 26.182521 -0.000000 -0.000000
RightUpLeg 3.288390 -14.832527 -1.632649
RightLeg -3.586959 -0.000000 0.000000
RightFoot -23.514575 -23.808662 19.454638
RightToeBase 24.669187 -0.000000 -0.000000
149
root 19.303545 35.474725 -20.234136 7.093351 8.834493 0.108944
Spine -21.036177 -10.063742 1.662254
Head 15.607054 5.559498 -1.556429
LeftShoulder -9.488379 4.637181 -4.482271
LeftArm -84.119558 48.419346 -165.770898
LeftForeArm 50.502762 -0.000000 110.547153
LeftHand 5.368381 -0.000000 -24.018331
LeftHandThumb1 -26.253704 0.000000 33.147579
RightShoulder -14.733850 1.857620 -21.147441
RightArm -174.050976 82.243913 -174.005909
RightForeArm 28.544624 -0.000000 86.957091
RightHand 1.944173 -0.000000 -26.624237
RightHandThumb1 -24.326973 -0.000000 -32.862282
LeftUpLeg 1.297205 3.075672 1.628967
LeftLeg -5.673361 -0.000000 0.000000
LeftFoot -20.305568 25.852671 -14.228183
LeftToeBase 26.200305 -0.000000 -0.000000
RightUpLeg 3.346889 -15.072052 -1.669359
RightLeg -3.586278 -0.000000 0.000000
RightFoot -23.617078 -23.904280 19.538724
RightToeBase 24.749349 -0.000000 -0.000000
150
root 19.300791 35.477394 -20.233011 7.069955 9.119960 0.175294
Spine -21.153867 -10.356220 1.760048
Head 16.007087 5.768637 -1.742261
LeftShoulder -9.334632 4.464152 -4.658422
LeftArm -84.329204 48.565599 -165.863851
LeftForeArm 51.290605 -0.000000 110.958422
LeftHand 5.268232 -0.000000 -24.289650
LeftHandThumb1 -26.253704 0.000000 33.147579
RightShoulder -14.546552 2.403989 -21.784870
RightArm -177.734651 81.579397 -178.151241
RightForeArm 30.225380 0.000000 88.969747
RightHand 2.529415 -0.000000 -26.351247
RightHandThumb1 -24.326973 -0.000000 -32.862282
LeftUpLeg 1.282412 2.852756 1.603775
LeftLeg -5.667990 -0.000000 0.000000
LeftFoot -20.239083 25.784685 -14.281580
LeftToeBase 26.153483 -0.000000 -0.000000
RightUpLeg 3.423727 -15.214932 -1.704031
RightLeg -3.582152 -0.000000 0.000000
RightFoot -23.699275 -24.040730 19.623479
RightToeBase 24.658936 -0.000000 -0.000000
151
root 19.299002 35.480325 -20.232534 7.004999 9.419883 0.247872
Spine -21.205323 -10.675503 1.844172
Head 16.379444 5.990640 -1.926754
LeftShoulder -9.204658 4.246670 -4.816083
LeftArm -84.534508 48.738238 -166.041617
LeftForeArm 52.052944 -0.000000 111.269767
LeftHand 5.370424 0.000000 -24.628801
LeftHandThumb1 -26.253704 0.000000 33.147579
RightShoulder -14.420495 2.981743 -22.398060
RightArm -181.594851 80.863502 -182.450420
RightForeArm 32.246304 -0.000000 91.020736
RightHand 3.438686 -0.000000 -25.578013
RightHandThumb1 -24.326973 -0.000000 -32.862282
LeftUpLeg 1.310286 2.599895 1.574995
LeftLeg -5.662520 -0.000000 0.000000
LeftFoot -20.160018 25.712049 -14.342420
LeftToeBase 26.061816 -0.000000 -0.000000
RightUpLeg 3.546755 -15.397080 -1.758608
RightLeg -3.575472 -0.000000 0.000000
RightFoot -23.762224 -24.139430 19.666833
RightToeBase 24.614256 -0.000000 -0.000000
152
root 19.297631 35.483198 -20.231102 7.000924 9.657471 0.303712
Spine -21.337212 -10.932702 1.940920
Head 16.723594 6.224723 -2.053427
LeftShoulder -9.035041 3.975490 -4.921212
LeftArm -84.794632 48.805032 -166.443271
LeftForeArm 52.645211 0.000000 111.448313
LeftHand 5.430266 -0.000000 -24.806090
LeftHandThumb1 -26.253704 0.000000 33.147579
RightShoulder -14.239091 3.592087 -23.006538
RightArm -184.649376 80.026173 -185.943216
RightForeArm 34.632709 -0.000000 93.003263
RightHand 3.827384 -0.000000 -24.773075
RightHandThumb1 -24.326973 -0.000000 -32.862282
LeftUpLeg 1.296341 2.449690 1.551741
LeftLeg -5.677310 -0.000000 0.000000
LeftFoot -20.075825 25.610070 -14.392475
LeftToeBase 26.066851 -0.000000 -0.000000
RightUpLeg 3.591322 -15.539638 -1.786814
RightLeg -3.563812 -0.000000 0.000000
RightFoot -23.831049 -24.233449 19.730229
RightToeBase 24.620758 -0.000000 -0.000000
153
root 19.294878 35.484688 -20.231070 7.004751 9.901717 0.345556
Spine -21.485392 -11.189405 2.034676
Head 17.082925 6.422311 -2.159969
LeftShoulder -8.831287 3.817442 -4.952753
LeftArm -84.971902 49.021133 -166.965483
LeftForeArm 53.590417 -0.000000 111.476603
LeftHand 5.902485 0.000000 -24.440120
LeftHandThumb1 -26.253704 0.000000 33.147579
RightShoulder -14.069981 4.261693 -23.565862
RightArm -187.659955 79.285361 -189.482921
RightForeArm 37.257824 -0.000000 95.182184
RightHand 3.799437 -0.000000 -24.589285
RightHandThumb1 -24.326973 -0.000000 -32.862282
LeftUpLeg 1.269916 2.251744 1.553104
LeftLeg -5.675671 -0.000000 0.000000
LeftFoot -20.042169 25.458352 -14.458965
LeftToeBase 26.153573 -0.000000 -0.000000
RightUpLeg 3.624852 -15.659570 -1.792476
RightLeg -3.552103 -0.000000 0.000000
RightFoot -23.891055 -24.350695 19.786566
RightToeBase 24.483996 -0.000000 -0.000000
154
root 19.293059 35.486938 -20.230534 6.990354 10.140615 0.386356
Spine -21.596045 -11.445018 2.148515
Head 17.391491 6.699167 -2.274048
LeftShoulder -8.632998 3.627180 -5.080442
LeftArm -85.304535 49.150980 -167.536394
LeftForeArm 54.395641 -0.000000 111.678718
LeftHand 5.890771 0.000000 -24.773808
LeftHandThumb1 -26.253704 0.000000 33.147579
RightShoulder -13.879768 4.822995 -24.121865
RightArm -189.673185 78.495473 -192.003746
RightForeArm 39.571499 -0.000000 97.412279
RightHand 3.478934 -0.000000 -24.771237
RightHandThumb1 -24.326973 -0.000000 -32.862282
LeftUpLeg 1.263420 2.090641 1.546604
LeftLeg -5.696544 -0.000000 0.000000
LeftFoot -19.967836 25.365934 -14.520481
LeftToeBase 26.022554 -0.000000 -0.000000
RightUpLeg 3.680276 -15.744214 -1.802429
RightLeg -3.550396 -0.000000 0.000000
RightFoot -23.958132 -24.496569 19.858613
RightToeBase 24.426735 -0.000000 -0.000000
